<mxfile host="app.diagrams.net" modified="2023-04-14T11:21:45.158Z" agent="Mozilla/5.0 (Windows NT 10.0; Win64; x64) AppleWebKit/537.36 (KHTML, like Gecko) Chrome/111.0.0.0 Safari/537.36" etag="FvrOiuXxoyuuTCMDO52u" version="21.1.4" type="device">
  <diagram name="Page-1" id="Tji8s9CxnaZ7ukfyS8_-">
    <mxGraphModel dx="1701" dy="703" grid="1" gridSize="10" guides="1" tooltips="1" connect="1" arrows="1" fold="1" page="1" pageScale="1" pageWidth="850" pageHeight="1100" math="0" shadow="0">
      <root>
        <mxCell id="0" />
        <mxCell id="1" parent="0" />
        <mxCell id="yULdfwjWggSLomlq6dq1-1" value="&lt;font style=&quot;font-size: 18px;&quot;&gt;&lt;b&gt;main_function&lt;/b&gt;(){&lt;br&gt;csv = Read_csv();&lt;br&gt;mean(csv);&lt;br&gt;median(csv);&lt;br&gt;mode(csv);&lt;br&gt;max(csv);&lt;br&gt;min(csv);&lt;br&gt;}&lt;/font&gt;" style="whiteSpace=wrap;html=1;aspect=fixed;" vertex="1" parent="1">
          <mxGeometry x="330" y="382" width="195" height="204" as="geometry" />
        </mxCell>
        <mxCell id="yULdfwjWggSLomlq6dq1-9" value="&lt;font style=&quot;font-size: 18px;&quot;&gt;&lt;b&gt;mean_fun&lt;/b&gt;(String[][] csv){&lt;br style=&quot;border-color: var(--border-color);&quot;&gt;print(mean);}&lt;/font&gt;" style="shape=parallelogram;perimeter=parallelogramPerimeter;whiteSpace=wrap;html=1;fixedSize=1;" vertex="1" parent="1">
          <mxGeometry x="27.5" y="402" width="245" height="189" as="geometry" />
        </mxCell>
        <mxCell id="yULdfwjWggSLomlq6dq1-11" value="&lt;font style=&quot;font-size: 18px;&quot;&gt;&lt;b&gt;median_fun&lt;/b&gt;(String[][] csv){&lt;br style=&quot;border-color: var(--border-color);&quot;&gt;print(median);}&lt;/font&gt;" style="shape=parallelogram;perimeter=parallelogramPerimeter;whiteSpace=wrap;html=1;fixedSize=1;" vertex="1" parent="1">
          <mxGeometry x="295" y="184.5" width="260" height="134" as="geometry" />
        </mxCell>
        <mxCell id="yULdfwjWggSLomlq6dq1-12" value="&lt;font style=&quot;font-size: 18px;&quot;&gt;&lt;b&gt;mode_fun&lt;/b&gt;(String[][] csv){&lt;br style=&quot;border-color: var(--border-color);&quot;&gt;print(mode);}&lt;/font&gt;" style="shape=parallelogram;perimeter=parallelogramPerimeter;whiteSpace=wrap;html=1;fixedSize=1;" vertex="1" parent="1">
          <mxGeometry x="577.5" y="172" width="232.5" height="149" as="geometry" />
        </mxCell>
        <mxCell id="yULdfwjWggSLomlq6dq1-13" value="&lt;font style=&quot;font-size: 18px;&quot;&gt;&lt;b&gt;max_fun&lt;/b&gt;(String[][] csv){&lt;br style=&quot;border-color: var(--border-color);&quot;&gt;print(max);}&lt;/font&gt;" style="shape=parallelogram;perimeter=parallelogramPerimeter;whiteSpace=wrap;html=1;fixedSize=1;" vertex="1" parent="1">
          <mxGeometry x="570" y="382" width="240" height="169" as="geometry" />
        </mxCell>
        <mxCell id="yULdfwjWggSLomlq6dq1-14" value="&lt;font style=&quot;font-size: 18px;&quot;&gt;&lt;b&gt;min_fun&lt;/b&gt;(String[][] csv){&lt;br style=&quot;border-color: var(--border-color);&quot;&gt;print(min);}&lt;/font&gt;" style="shape=parallelogram;perimeter=parallelogramPerimeter;whiteSpace=wrap;html=1;fixedSize=1;" vertex="1" parent="1">
          <mxGeometry x="320" y="632" width="250" height="189" as="geometry" />
        </mxCell>
        <mxCell id="yULdfwjWggSLomlq6dq1-15" value="&lt;font style=&quot;font-size: 18px;&quot;&gt;&lt;b&gt;Read_CSV&lt;/b&gt;(){&lt;br style=&quot;border-color: var(--border-color);&quot;&gt;return csv[][]}&lt;/font&gt;" style="shape=parallelogram;perimeter=parallelogramPerimeter;whiteSpace=wrap;html=1;fixedSize=1;" vertex="1" parent="1">
          <mxGeometry x="40" y="192" width="200" height="119" as="geometry" />
        </mxCell>
        <mxCell id="yULdfwjWggSLomlq6dq1-16" value="" style="endArrow=classic;startArrow=classic;html=1;rounded=0;exitX=1;exitY=1;exitDx=0;exitDy=0;entryX=0;entryY=0;entryDx=0;entryDy=0;" edge="1" parent="1" source="yULdfwjWggSLomlq6dq1-15" target="yULdfwjWggSLomlq6dq1-1">
          <mxGeometry width="50" height="50" relative="1" as="geometry">
            <mxPoint x="240" y="522" as="sourcePoint" />
            <mxPoint x="290" y="472" as="targetPoint" />
          </mxGeometry>
        </mxCell>
        <mxCell id="yULdfwjWggSLomlq6dq1-17" value="" style="endArrow=classic;html=1;rounded=0;exitX=0;exitY=0.5;exitDx=0;exitDy=0;entryX=0.967;entryY=0.443;entryDx=0;entryDy=0;entryPerimeter=0;" edge="1" parent="1" source="yULdfwjWggSLomlq6dq1-1" target="yULdfwjWggSLomlq6dq1-9">
          <mxGeometry width="50" height="50" relative="1" as="geometry">
            <mxPoint x="240" y="522" as="sourcePoint" />
            <mxPoint x="290" y="472" as="targetPoint" />
          </mxGeometry>
        </mxCell>
        <mxCell id="yULdfwjWggSLomlq6dq1-18" value="" style="endArrow=classic;html=1;rounded=0;exitX=0.5;exitY=0;exitDx=0;exitDy=0;entryX=0.5;entryY=1;entryDx=0;entryDy=0;" edge="1" parent="1" source="yULdfwjWggSLomlq6dq1-1" target="yULdfwjWggSLomlq6dq1-11">
          <mxGeometry width="50" height="50" relative="1" as="geometry">
            <mxPoint x="240" y="522" as="sourcePoint" />
            <mxPoint x="290" y="472" as="targetPoint" />
          </mxGeometry>
        </mxCell>
        <mxCell id="yULdfwjWggSLomlq6dq1-21" value="" style="endArrow=classic;html=1;rounded=0;exitX=1;exitY=0;exitDx=0;exitDy=0;entryX=0;entryY=1;entryDx=0;entryDy=0;" edge="1" parent="1" source="yULdfwjWggSLomlq6dq1-1" target="yULdfwjWggSLomlq6dq1-12">
          <mxGeometry width="50" height="50" relative="1" as="geometry">
            <mxPoint x="438" y="392" as="sourcePoint" />
            <mxPoint x="435" y="320" as="targetPoint" />
          </mxGeometry>
        </mxCell>
        <mxCell id="yULdfwjWggSLomlq6dq1-22" value="" style="endArrow=classic;html=1;rounded=0;entryX=0.055;entryY=0.43;entryDx=0;entryDy=0;entryPerimeter=0;" edge="1" parent="1" target="yULdfwjWggSLomlq6dq1-13">
          <mxGeometry width="50" height="50" relative="1" as="geometry">
            <mxPoint x="530" y="451" as="sourcePoint" />
            <mxPoint x="445" y="330" as="targetPoint" />
          </mxGeometry>
        </mxCell>
        <mxCell id="yULdfwjWggSLomlq6dq1-23" value="" style="endArrow=classic;html=1;rounded=0;entryX=0.468;entryY=0;entryDx=0;entryDy=0;exitX=0.549;exitY=1.015;exitDx=0;exitDy=0;exitPerimeter=0;entryPerimeter=0;" edge="1" parent="1" source="yULdfwjWggSLomlq6dq1-1" target="yULdfwjWggSLomlq6dq1-14">
          <mxGeometry width="50" height="50" relative="1" as="geometry">
            <mxPoint x="430" y="592" as="sourcePoint" />
            <mxPoint x="455" y="340" as="targetPoint" />
          </mxGeometry>
        </mxCell>
      </root>
    </mxGraphModel>
  </diagram>
</mxfile>
